<?xml version="1.0" standalone="no"?>
<!DOCTYPE svg PUBLIC "-//W3C//DTD SVG 20010904//EN"
 "http://www.w3.org/TR/2001/REC-SVG-20010904/DTD/svg10.dtd">
<svg version="1.0" xmlns="http://www.w3.org/2000/svg"
 width="740.000000pt" height="97.000000pt" viewBox="0 0 740.000000 97.000000"
 preserveAspectRatio="xMidYMid meet">

<g transform="translate(0.000000,97.000000) scale(0.100000,-0.100000)"
fill="#000000" stroke="none">
<path d="M1840 495 l0 -475 120 0 120 0 0 83 c0 83 0 83 38 120 l38 37 95
-119 94 -120 148 -1 148 0 -20 28 c-11 15 -80 103 -154 197 l-134 170 138 145
138 145 -141 3 -142 3 -116 -116 c-63 -63 -119 -115 -123 -115 -4 0 -7 110 -7
245 l0 245 -120 0 -120 0 0 -475z"/>
<path d="M10 471 l0 -451 248 0 c268 0 339 9 434 54 107 50 180 133 218 247
32 92 26 248 -13 332 -33 73 -121 166 -191 201 -104 53 -141 58 -428 63 l-268
5 0 -451z m511 228 c113 -34 178 -160 150 -291 -16 -73 -49 -118 -112 -153
-50 -27 -64 -29 -176 -33 l-123 -4 0 246 0 246 111 0 c62 0 129 -5 150 -11z"/>
<path d="M5010 466 l0 -446 125 0 125 0 0 119 0 119 143 4 c163 6 218 20 293
77 34 25 59 57 82 101 33 62 34 69 30 155 -3 76 -8 98 -33 144 -34 62 -93 111
-173 143 -53 21 -74 23 -324 26 l-268 3 0 -445z m478 239 c49 -20 76 -65 75
-126 -1 -95 -56 -129 -208 -129 l-95 0 0 135 0 135 95 0 c62 0 108 -5 133 -15z"/>
<path d="M2870 720 c-102 -14 -220 -57 -220 -80 0 -5 16 -43 37 -84 l36 -73
54 24 c107 49 227 40 263 -20 11 -18 20 -37 20 -43 0 -8 -44 -13 -132 -16
-110 -4 -142 -9 -186 -28 -163 -71 -174 -270 -20 -356 48 -26 62 -29 148 -29
103 0 137 11 185 62 l25 28 0 -43 0 -42 111 0 110 0 -3 253 c-3 236 -4 255
-25 292 -47 87 -127 137 -249 155 -76 11 -75 11 -154 0z m190 -456 c0 -93
-154 -142 -199 -63 -18 32 -8 73 21 87 13 6 58 11 101 11 l77 1 0 -36z"/>
<path d="M3615 719 c-69 -10 -174 -43 -201 -63 -18 -14 -17 -17 20 -94 l39
-80 54 25 c65 30 156 40 206 24 39 -13 77 -53 77 -81 0 -15 -15 -18 -132 -22
-109 -4 -142 -9 -183 -27 -90 -40 -125 -90 -125 -180 0 -61 13 -97 48 -134 44
-47 99 -70 179 -75 93 -6 156 11 199 55 l34 34 0 -41 0 -40 116 0 116 0 -4
238 c-5 251 -11 286 -59 351 -65 88 -225 134 -384 110z m195 -458 c0 -31 -6
-44 -30 -64 -72 -61 -180 -38 -180 39 0 13 12 32 26 43 22 17 41 21 105 21
l79 0 0 -39z"/>
<path d="M4570 723 c-56 -10 -122 -36 -150 -60 l-30 -25 0 36 0 36 -115 0
-115 0 0 -345 0 -345 119 0 120 0 3 203 c3 224 7 238 71 278 44 28 110 21 146
-15 l26 -26 3 -220 3 -220 125 0 126 0 -4 248 c-3 234 -5 250 -27 300 -26 58
-75 106 -135 132 -44 19 -125 31 -166 23z"/>
<path d="M6255 711 c-39 -10 -84 -34 -112 -60 -30 -29 -33 -27 -33 19 l0 40
-110 0 -110 0 0 -345 0 -345 114 0 114 0 4 193 c3 170 5 196 23 226 27 46 77
71 142 71 l53 0 0 105 0 105 -27 -1 c-16 -1 -41 -4 -58 -8z"/>
<path d="M6627 709 c-130 -31 -229 -129 -263 -258 -41 -161 39 -328 192 -398
208 -95 454 -17 540 171 24 51 28 74 28 146 1 71 -4 94 -26 141 -61 133 -196
210 -363 208 -38 -1 -87 -5 -108 -10z m196 -197 c45 -27 71 -92 64 -163 -3
-33 -13 -71 -22 -85 -41 -62 -138 -83 -203 -44 -61 38 -90 148 -58 223 37 87
135 118 219 69z"/>
<path d="M1000 492 c0 -308 23 -379 141 -446 50 -29 61 -31 149 -31 99 0 137
12 188 58 l22 20 0 -36 0 -37 115 0 115 0 0 345 0 345 -120 0 -120 0 0 -190
c0 -208 -6 -240 -55 -278 -30 -24 -101 -30 -136 -12 -43 24 -49 57 -49 275 l0
205 -125 0 -125 0 0 -218z"/>
</g>
</svg>
