<?xml version="1.0" standalone="no"?>
<!DOCTYPE svg PUBLIC "-//W3C//DTD SVG 20010904//EN"
 "http://www.w3.org/TR/2001/REC-SVG-20010904/DTD/svg10.dtd">
<svg version="1.0" xmlns="http://www.w3.org/2000/svg"
 width="4088.000000pt" height="1733.000000pt" viewBox="0 0 4088.000000 1733.000000"
 preserveAspectRatio="xMidYMid meet">
<metadata>
Created by potrace 1.16, written by Peter Selinger 2001-2019
</metadata>
<g transform="translate(0.000000,1733.000000) scale(0.100000,-0.100000)"
fill="#000000" stroke="none">
<path d="M21590 15585 l-85 -85 90 -90 90 -90 90 90 90 90 -85 85 c-47 47 -89
85 -95 85 -6 0 -49 -38 -95 -85z m185 -5 l80 -80 -85 -85 -85 -85 -85 85 -85
85 80 80 c44 44 84 80 90 80 6 0 46 -36 90 -80z"/>
<path d="M853 10865 c-158 -43 -276 -154 -325 -308 -20 -62 -20 -83 -26 -4823
l-5 -4762 22 -70 c71 -236 303 -372 542 -318 41 9 97 30 126 46 111 64 202
190 223 310 5 34 11 1557 13 3965 l4 3910 26 105 c123 509 490 880 977 986
129 28 442 27 560 -3 507 -128 849 -485 973 -1018 l22 -90 2 -3983 c2 -2190 7
-3982 12 -3982 4 0 22 -29 39 -63 42 -86 118 -159 211 -205 74 -37 76 -37 200
-37 121 0 129 1 194 32 89 42 183 136 217 215 14 32 31 58 38 58 9 0 12 797
12 3953 0 3422 2 3964 15 4042 68 422 323 783 682 968 206 105 328 132 598
131 182 -1 209 -3 296 -26 191 -52 324 -117 475 -234 238 -184 400 -451 476
-782 l22 -97 6 -3966 5 -3965 38 -76 c84 -171 225 -258 415 -258 179 0 321 83
405 239 60 110 57 -166 57 4041 0 2527 -4 3901 -10 3990 -24 318 -94 575 -231
856 -319 654 -916 1099 -1624 1211 -172 28 -548 24 -720 -6 -440 -78 -818
-270 -1135 -578 -58 -56 -132 -136 -165 -177 -33 -41 -63 -74 -66 -73 -4 1
-51 54 -106 117 -355 411 -867 677 -1407 729 -526 51 -1026 -70 -1442 -350
l-72 -48 -5 41 c-3 23 -22 74 -41 114 -95 191 -319 294 -523 239z"/>
<path d="M9465 10866 c-176 -43 -314 -192 -344 -373 -9 -50 -11 -1094 -8
-3978 3 -4245 -1 -3944 53 -4195 173 -812 758 -1464 1520 -1695 226 -69 315
-80 629 -80 299 0 356 6 567 60 520 133 991 488 1293 975 125 202 236 476 289
712 59 263 56 18 56 4285 0 3811 0 3913 -19 3972 -85 275 -408 403 -663 264
-111 -60 -204 -191 -227 -317 -8 -42 -11 -1199 -11 -3922 0 -2715 -3 -3886
-11 -3940 -78 -562 -494 -1020 -1016 -1118 -417 -78 -823 38 -1123 320 -229
217 -375 524 -410 863 -7 70 -10 1345 -10 3951 0 3749 0 3850 -19 3909 -71
228 -313 364 -546 307z"/>
<path d="M32970 10868 c-244 -23 -531 -106 -759 -219 -672 -334 -1128 -983
-1211 -1724 -8 -72 -10 -986 -7 -3285 l3 -3185 21 -100 c52 -247 100 -393 197
-590 287 -586 829 -1017 1466 -1169 296 -71 667 -75 970 -11 587 123 1108 494
1426 1015 161 264 268 582 304 905 8 72 10 980 8 3270 l-4 3170 -21 110 c-12
61 -37 164 -57 230 -146 506 -459 933 -901 1227 -418 279 -925 404 -1435 356z
m456 -933 c254 -49 479 -169 669 -360 150 -150 244 -300 310 -499 70 -209 66
38 63 -3416 l-3 -3115 -32 -120 c-155 -571 -662 -965 -1242 -965 -564 0 -1055
361 -1225 899 -60 188 -56 -26 -56 3352 0 3005 1 3101 19 3197 107 553 545
965 1106 1041 92 13 290 6 391 -14z"/>
<path d="M38030 10868 c-325 -30 -692 -159 -970 -339 -561 -363 -927 -957
-999 -1621 -15 -134 -15 -6260 -1 -6396 93 -869 677 -1592 1507 -1867 218 -72
435 -105 692 -105 605 0 1155 235 1581 676 325 336 515 727 598 1229 15 91 16
370 20 3125 2 1996 0 3086 -7 3205 -16 279 -64 500 -157 729 -370 907 -1282
1457 -2264 1364z m500 -942 c256 -59 467 -180 651 -374 175 -184 288 -407 336
-662 17 -90 18 -260 18 -3190 l0 -3095 -23 -102 c-12 -56 -36 -141 -53 -190
-154 -437 -545 -764 -1002 -838 -263 -43 -534 -1 -774 119 -308 155 -538 421
-648 750 -70 210 -66 -37 -62 3411 3 3429 -2 3129 62 3321 85 253 263 494 475
643 153 108 366 196 530 220 41 6 86 13 100 15 64 12 289 -5 390 -28z"/>
</g>
</svg>
