<svg width="159" height="31" viewBox="0 0 159 31" fill="none" xmlns="http://www.w3.org/2000/svg">
<path d="M31.1801 0H22.1501C22.1501 0 21.8401 2.44379e-06 21.7601 0.190002C21.6801 0.380002 21.5201 0.770003 21.5201 0.770003L10.7001 26.8399C10.7001 26.8399 11.6501 29.17 11.7901 29.36C11.9601 29.59 12.2401 29.7099 12.5201 29.6799H19.5101C19.6201 29.6699 19.7201 29.64 19.8101 29.58C19.9901 29.43 20.1401 29.2499 20.2401 29.0399L31.9301 0.919996C32.0301 0.679997 32 0.400007 31.86 0.180008C31.7 7.9274e-06 31.3401 0 31.1801 0Z" fill="#5AC3F0"/>
<path d="M16.19 13.61L10.65 1.03C10.65 1.03 10.49 0.639998 10.35 0.389999C10.21 0.139999 9.60999 0 9.60999 0H1.04001C1.04001 0 0.34 1.81794e-06 0.09 0.330001C-0.03 0.620001 -0.03 0.940009 0.09 1.23001L10.7 26.8399L16.19 13.61Z" fill="white"/>
<path d="M49.64 20.0199C49.64 20.2799 49.64 20.54 49.64 20.8C49.64 21.06 49.6301 21.31 49.6001 21.54H35.55C35.6 22.08 35.7601 22.5799 36.0401 23.0199C36.3101 23.4599 36.6601 23.84 37.0901 24.17C37.5201 24.4999 38.0001 24.7499 38.5301 24.9299C39.0601 25.1099 39.6101 25.1999 40.1801 25.1999C41.1901 25.1999 42.0501 25.0099 42.7501 24.64C43.4501 24.26 44.0201 23.7799 44.4601 23.1799L48.9001 25.9799C47.9901 27.2999 46.79 28.3199 45.3 29.0399C43.81 29.7499 42.0701 30.1099 40.1001 30.1099C38.6501 30.1099 37.2701 29.8799 35.9701 29.4299C34.6701 28.9799 33.5401 28.3099 32.5601 27.4399C31.5901 26.5699 30.8201 25.4999 30.2601 24.2299C29.7001 22.96 29.42 21.5099 29.42 19.8699C29.42 18.2899 29.6901 16.85 30.2401 15.57C30.7801 14.28 31.5201 13.19 32.4601 12.3C33.3901 11.41 34.5001 10.71 35.7701 10.22C37.0401 9.72997 38.4201 9.47998 39.9001 9.47998C41.3301 9.47998 42.64 9.71997 43.83 10.2C45.02 10.68 46.0501 11.37 46.9101 12.28C47.7701 13.19 48.4301 14.29 48.9101 15.59C49.4001 16.8799 49.64 18.3599 49.64 20.0199ZM43.7601 17.57C43.7601 16.56 43.4401 15.69 42.8101 14.96C42.1801 14.23 41.2201 13.87 39.9501 13.87C39.3301 13.87 38.7601 13.97 38.2401 14.16C37.7201 14.35 37.2701 14.62 36.8801 14.96C36.4901 15.3 36.1801 15.69 35.9501 16.15C35.7201 16.6 35.5901 17.08 35.5601 17.57H43.7601Z" fill="white"/>
<path d="M65.7501 15.3501C65.4601 15.2701 65.1901 15.2201 64.9101 15.1901C64.6401 15.1601 64.37 15.1501 64.11 15.1501C63.25 15.1501 62.5301 15.3101 61.9501 15.6201C61.3701 15.9301 60.9 16.31 60.55 16.75C60.2 17.19 59.9501 17.67 59.7901 18.19C59.6301 18.71 59.5601 19.16 59.5601 19.55V29.49H53.1801V10.1301H59.33V12.9301H59.4101C59.9001 11.9401 60.6001 11.1301 61.5101 10.5001C62.4201 9.87006 63.4701 9.56006 64.6601 9.56006C64.9201 9.56006 65.17 9.57007 65.42 9.60007C65.67 9.63007 65.8701 9.67006 66.0201 9.72006L65.7501 15.3501Z" fill="white"/>
<path d="M76.5501 14.8399V22.2599C76.5501 23.1699 76.7201 23.8599 77.0801 24.3099C77.4301 24.7699 78.0601 24.9899 78.9701 24.9899C79.2801 24.9899 79.6101 24.9599 79.9601 24.9099C80.3101 24.8599 80.6001 24.7799 80.8401 24.6799L80.9201 29.3499C80.4801 29.5099 79.9201 29.6399 79.2501 29.7599C78.5801 29.8799 77.9001 29.9299 77.2301 29.9299C75.9301 29.9299 74.8401 29.7699 73.9601 29.4399C73.0801 29.1099 72.3701 28.6499 71.8401 28.0299C71.3101 27.4199 70.9301 26.6899 70.6901 25.8399C70.4601 24.9999 70.3401 24.0499 70.3401 23.0099V14.8099H67.2301L76.5701 4.95996V10.0599H81.1201V14.8099H76.5501V14.8399Z" fill="white"/>
<path d="M96.84 15.3501C96.55 15.2701 96.28 15.2201 96 15.1901C95.73 15.1601 95.46 15.1501 95.2 15.1501C94.34 15.1501 93.62 15.3101 93.04 15.6201C92.46 15.9301 91.99 16.31 91.64 16.75C91.29 17.19 91.04 17.67 90.88 18.19C90.72 18.71 90.65 19.16 90.65 19.55V29.49H84.27V10.1301H90.42V12.9301H90.5C90.99 11.9401 91.69 11.1301 92.6 10.5001C93.51 9.87006 94.56 9.56006 95.75 9.56006C96.01 9.56006 96.26 9.57007 96.51 9.60007C96.76 9.63007 96.96 9.67006 97.11 9.72006L96.84 15.3501Z" fill="white"/>
<path d="M106.33 3.89941C106.33 4.38941 106.23 4.8494 106.04 5.27939C105.84 5.70939 105.58 6.07939 105.26 6.38939C104.94 6.69939 104.55 6.9494 104.09 7.1294C103.64 7.3094 103.16 7.3994 102.67 7.3994C101.63 7.3994 100.76 7.0594 100.06 6.3694C99.3601 5.67941 99.0101 4.85941 99.0101 3.89941C99.0101 3.42941 99.1001 2.9794 99.2801 2.5594C99.4601 2.1294 99.7201 1.7594 100.06 1.4494C100.4 1.1394 100.78 0.889406 101.23 0.689407C101.67 0.499407 102.15 0.399414 102.67 0.399414C103.16 0.399414 103.64 0.489403 104.09 0.669403C104.55 0.849402 104.93 1.09941 105.26 1.40941C105.58 1.71941 105.84 2.08941 106.04 2.51941C106.24 2.9494 106.33 3.40941 106.33 3.89941ZM99.4801 29.4794V10.0894H105.86V29.4794H99.4801Z" fill="white"/>
<path d="M123.71 16.36C123.35 15.89 122.85 15.52 122.23 15.23C121.61 14.94 120.97 14.8 120.32 14.8C119.65 14.8 119.04 14.94 118.49 15.21C117.94 15.48 117.48 15.85 117.09 16.3C116.7 16.75 116.4 17.28 116.17 17.88C115.94 18.48 115.84 19.11 115.84 19.79C115.84 20.47 115.94 21.1 116.15 21.7C116.36 22.3 116.66 22.82 117.07 23.28C117.47 23.73 117.95 24.09 118.51 24.35C119.07 24.61 119.7 24.7399 120.4 24.7399C121.05 24.7399 121.69 24.6199 122.33 24.3699C122.97 24.1199 123.48 23.77 123.87 23.3L127.41 27.6199C126.61 28.3999 125.57 29.01 124.3 29.45C123.03 29.89 121.68 30.11 120.25 30.11C118.72 30.11 117.29 29.8799 115.96 29.4099C114.63 28.9399 113.48 28.2599 112.5 27.3699C111.52 26.4699 110.75 25.3899 110.19 24.1199C109.63 22.85 109.35 21.41 109.35 19.8C109.35 18.22 109.63 16.79 110.19 15.52C110.75 14.25 111.52 13.16 112.5 12.27C113.48 11.37 114.63 10.69 115.96 10.21C117.29 9.72999 118.7 9.48999 120.21 9.48999C120.91 9.48999 121.6 9.54999 122.29 9.67999C122.98 9.80999 123.64 9.98999 124.28 10.21C124.92 10.43 125.5 10.7 126.03 11.03C126.56 11.36 127.02 11.71 127.41 12.1L123.71 16.36Z" fill="white"/>
<path d="M129.68 12.74C130.82 11.65 132.15 10.83 133.67 10.29C135.19 9.74998 136.74 9.46997 138.32 9.46997C139.95 9.46997 141.34 9.66998 142.47 10.07C143.6 10.47 144.51 11.1 145.21 11.94C145.91 12.78 146.42 13.85 146.75 15.13C147.07 16.42 147.24 17.94 147.24 19.7V29.4699H141.4V27.4099H141.28C140.79 28.2099 140.04 28.8399 139.04 29.2799C138.04 29.7199 136.96 29.9399 135.79 29.9399C135.01 29.9399 134.21 29.8399 133.38 29.6299C132.55 29.4199 131.79 29.0899 131.1 28.6199C130.41 28.1499 129.85 27.5299 129.41 26.7499C128.97 25.9699 128.75 25.0099 128.75 23.8699C128.75 22.4699 129.13 21.34 129.9 20.48C130.67 19.62 131.65 18.96 132.86 18.49C134.07 18.02 135.41 17.71 136.89 17.56C138.37 17.4 139.81 17.33 141.21 17.33V17.02C141.21 16.06 140.87 15.35 140.2 14.9C139.53 14.45 138.7 14.22 137.71 14.22C136.8 14.22 135.93 14.41 135.08 14.8C134.24 15.19 133.52 15.66 132.92 16.2L129.68 12.74ZM141.4 21.0299H140.58C139.88 21.0299 139.17 21.06 138.46 21.13C137.75 21.2 137.11 21.3199 136.55 21.4999C135.99 21.6799 135.53 21.95 135.17 22.3C134.81 22.65 134.63 23.1099 134.63 23.6799C134.63 24.0399 134.71 24.35 134.88 24.61C135.05 24.87 135.26 25.0799 135.52 25.2299C135.78 25.3899 136.08 25.4999 136.42 25.5599C136.76 25.6299 137.08 25.6599 137.39 25.6599C138.69 25.6599 139.68 25.2999 140.37 24.5899C141.06 23.8799 141.4 22.9099 141.4 21.6899V21.0299Z" fill="white"/>
<path d="M151.68 29.48V0.0500488H158.18V29.48H151.68Z" fill="white"/>
</svg>
